<?xml version="1.0" standalone="yes"?>
<svg width="400" height="400">
<path style="fill:#000000; stroke:none;" d="M0 0L0 177L1 177C1.0532 157.721 8.16774 137.513 15.7191 120C41.6549 59.852 108.054 1.18991 177 1L160 0L124 0L0 0z"/>
<path style="fill:#f80b10; stroke:none;" d="M108 28C117.334 26.0002 125.991 20.6543 135 17.5054C156.793 9.88776 180.823 4.40955 204 5.01465C304.825 7.64697 386.672 90.5341 399 188C401.417 182.239 399.447 174.046 398.572 168C396.127 151.116 391.119 134.66 384.421 119C354.083 48.0592 281.912 0 205 0C179.901 0 156.946 2.04459 133 10.1697C122.416 13.7609 111.221 16.2376 108 28z"/>
<path style="fill:#000000; stroke:none;" d="M223 0L223 1C291.741 1.18936 358.679 59.808 384.421 120C391.936 137.571 398.947 157.683 399 177L400 177L400 0L223 0z"/>
<path style="fill:#f76e6d; stroke:none;" d="M188 5L188 6L210 6L188 5z"/>
<path style="fill:#ef4c49; stroke:none;" d="M180 6L180 7L188 7L180 6z"/>
<path style="fill:#fe968e; stroke:none;" d="M395 239C389.887 239 394.573 220.649 395.333 217C400.196 193.662 391.543 160.811 383.667 139C360.623 75.1882 306.231 30.9028 242 14L242 13L247 13C234.673 5.47067 212.107 5.99911 198 6C140.463 6.00366 87.0591 36.5765 50.1343 79.0146C22.7342 110.506 1.25884 160.789 3.03935 203C7.38664 306.062 106.468 416.576 216 398.285C241.116 394.091 269.026 391.268 291.961 379.161C300.616 374.592 308.941 366.702 317.08 361.006C355.94 333.813 388.913 286.917 395 239z"/>
<path style="fill:#f86f6c; stroke:none;" d="M222 7L222 8L230 9L222 7z"/>
<path style="fill:#fe1013; stroke:none;" d="M8 200L17 195C13.1569 204.83 12.4722 215.599 26 216C20.2354 221.753 15.3618 219.094 9 216C9.05434 235.695 15.824 256.13 23.5756 274C51.6281 338.671 117.822 394 191 394C188.771 384.483 184.091 379.153 194 372C192.315 385.333 195.648 389 209 389L204 393C209.86 395.459 217.863 393.869 224 392.999C240.155 390.709 255.724 386.33 271 380.681C343.414 353.903 398.24 272.826 392.91 195C385.897 92.59 294.932 9.49249 192 12.0146C170.135 12.5504 148.216 19.8416 128 27.4668C108.288 34.9019 89.6493 47.086 74 61.1705C51.9208 81.0421 37.2836 103.16 25.5756 130C15.6747 152.697 8 174.954 8 200z"/>
<path style="fill:#f95a55; stroke:none;" d="M205 12L205 13L213 13L205 12z"/>
<path style="fill:#f3504b; stroke:none;" d="M214 13L214 14L219 14L214 13z"/>
<path style="fill:#fec2b7; stroke:none;" d="M242 13L242 14C253.382 18.8317 265.644 20.7737 277 25.4337C290.448 30.9521 303.827 40.5743 315.83 48.6458C363.745 80.8669 392.012 141.395 395.91 198C396.891 212.234 393 225.8 393 240C397.751 235.348 397.619 225.405 398.089 219C399.448 200.478 399.273 184.35 395.282 166C383.445 111.584 350.136 65.3746 303 35.6813C285.708 24.7883 262.818 13.0137 242 13z"/>
<path style="fill:#fb9590; stroke:none;" d="M204 16L210 27C212.21 21.6687 209.242 17.4888 204 16z"/>
<path style="fill:#fd655f; stroke:none;" d="M104 33L138 18C130.713 15.4732 107.629 26.4281 104 33z"/>
<path style="fill:#b30004; stroke:none;" d="M187 23L190 21C190.005 29.3097 191.821 33.8112 200 37L198 40L202 39C197.555 30.218 190.617 29.0065 192 18L187 23z"/>
<path style="fill:#b90102; stroke:none;" d="M0 184L1 184C4.49522 139.711 29.0453 95.8062 60 65.0008C69.4786 55.5678 80.0537 47.3687 91 39.7199C99.8792 33.5155 107.35 30.7849 111 20C95.4112 24.4995 80.1007 37.4698 68 47.8696C29.989 80.5377 0.423782 132.807 0 184z"/>
<path style="fill:#f36c66; stroke:none;" d="M271.667 20.3333L272.333 20.6667L271.667 20.3333z"/>
<path style="fill:#840000; stroke:none;" d="M189 21C183.492 28.6586 191.39 45.165 200 37C191.797 32.3375 192.223 28.6638 189 21z"/>
<path style="fill:#f65454; stroke:none;" d="M211 21L211 27L212 27L211 21z"/>
<path style="fill:#f36c6b; stroke:none;" d="M276.667 22.3333L277.333 22.6667L276.667 22.3333z"/>
<path style="fill:#f6403f; stroke:none;" d="M50 77L104 33C98.797 32.1497 93.0654 37.5482 89 40.4244C77.1085 48.8376 54.1078 62.3651 50 77z"/>
<path style="fill:#fd776e; stroke:none;" d="M73 56L101 35C92.1131 38.3683 77.5354 47.5303 73 56z"/>
<path style="fill:#c78281; stroke:none;" d="M189 38L189 39L194 39L189 38z"/>
<path style="fill:#de6162; stroke:none;" d="M184.667 39.3333L185.333 39.6667L184.667 39.3333z"/>
<path style="fill:#fcf8f8; stroke:none;" d="M138 65C134.05 64.1795 132.158 64.4918 130 68C120.081 65.9156 121.598 77.2918 120 84L111 80L111 88C103.244 90.5741 109.93 97.7131 108.502 102.985C107.278 107.506 100.149 107.762 99.662 112.105C99.0696 117.388 106.759 119.399 108.972 123.209C110.837 126.419 110.138 131.38 111 135C125.416 133.585 126.638 153.324 130 164C109.662 164.24 124.138 199.195 131.681 207.891C134.401 211.027 137.543 210.976 140.787 213.012C144.152 215.124 145.349 219.348 146 223C124.778 223.176 118.184 237.189 106.363 251.715C99.7649 259.822 91.823 263.84 88 274C92.5087 272.519 95.3412 266.299 98.9645 263.001C116.632 246.917 122.572 227.358 149 224C148.209 220.297 146.854 214.399 144.157 211.6C141.233 208.565 136.356 208.382 133.188 204.956C125.818 196.985 112.428 164.643 133 167L124 131L118 133L119 129L113 131L116 120L102 111L118 108L109 92L117 96L113 85L124 91L126 71L127 71L129 77L130 77L132 69L133 69L138 77C139.469 62.7342 156.91 47.7309 171 47L165 57C174.359 50.6019 182.351 43.7204 194 42L194 43C187.07 45.5762 179.262 51.2133 176 58L205 47.9437L216 53L215 58L233 57L225 64L236 61L236 62L229 64L229 65L240 65L241 73L252 67L252 83L253 83L254 74C258.616 78.5215 255.948 83.402 255 89L271 87L265 96L276 97L276 99C270.643 99.4411 266.509 100.806 263 105L267 105L267 106L263 108L258.303 118L253 163C259.779 160.591 265.278 163.072 265.725 171C266.324 181.593 259.591 207.419 246 206L240 224C268.875 224.121 277.301 245.874 296 262.972C298.528 265.284 312.927 283.674 315 274C307.982 273.097 305.717 267.863 300.946 263.424C296.44 259.233 290.689 255.69 286.904 250.826C281.431 243.794 277.557 235.08 269.985 229.85C263.779 225.564 250.147 226.508 245.698 221.272C243.39 218.558 246.788 212.294 247 209C261.423 207.513 266.94 187.376 266.999 175C267.039 166.649 267.211 159.331 257 159C257.032 147.513 257.846 125.155 263.314 115.015C266.534 109.044 276.165 105.065 278.338 98.8264C279.443 95.6523 275.777 88.3071 276 84L260 83C259.997 78.3213 259.822 62.8198 252.942 62.6212C249.847 62.5318 246.57 65.5447 244 67L240 56C234.29 55.2311 226.121 55.1039 221 52.6065C211.242 47.8475 209.753 40.3328 198 44C194.708 35.0452 184.542 40.452 178 42.2747C173.086 43.6438 167.893 42.247 163 43.6373C153.173 46.4297 142.466 56.0348 138 65z"/>
<path style="fill:#e69294; stroke:none;" d="M182.667 40.3333L183.333 40.6667L182.667 40.3333z"/>
<path style="fill:#e29494; stroke:none;" d="M197.333 40.6667L197.667 41.3333L197.333 40.6667z"/>
<path style="fill:#d6655f; stroke:none;" d="M198 41L201 44L201 43L198 41z"/>
<path style="fill:#db6f6f; stroke:none;" d="M203 41L203 42L208 42L203 41z"/>
<path style="fill:#f1a1a7; stroke:none;" d="M166 42L166 43L174 43L166 42z"/>
<path style="fill:#ea8d91; stroke:none;" d="M177.667 42.3333L178.333 42.6667L177.667 42.3333z"/>
<path style="fill:#a0a1a2; stroke:none;" d="M190 42L190 43L194 43L190 42z"/>
<path style="fill:#0f1316; stroke:none;" d="M168 54L158 77L176 60L191 43C182.357 44.0599 174.921 49.0437 168 54z"/>
<path style="fill:#fe918d; stroke:none;" d="M210 43L212 48C233.854 43.7353 264.401 58.8414 282 70.5162C289.639 75.5839 296.791 83.1772 305 87L306 85C300.582 77.9731 292.244 73.2092 285 68.2546C262.471 52.8456 237.837 43 210 43z"/>
<path style="fill:#cc2b30; stroke:none;" d="M154 48L161 45C157.738 44.0454 155.726 45.1758 154 48z"/>
<path style="fill:#5c6262; stroke:none;" d="M184.667 44.3333L185.333 44.6667L184.667 44.3333z"/>
<path style="fill:#545759; stroke:none;" d="M179.667 46.3333L180.333 46.6667L179.667 46.3333z"/>
<path style="fill:#000000; stroke:none;" d="M158 77L169 55L163 59L165 53C155.63 56.1874 150.815 66.66 150 76L149 76L147 73C142.617 89.4826 174.887 93.2797 185 98L185 99L160 96L160 97L164 99L164 100L140 80L137 81L133 69L132 69L131 79L130 79L127 71L126 71L125 92L114 85L126 102L110 92L118 109L102 112L102 113L117 120L113 131L119 128L119 133L125 130L134 168C121.591 165.047 121.557 175.042 123.669 185C126.248 197.161 131.423 208.99 145 209L150 225C122.054 225.018 114.844 247.912 97.0548 264.576C91.7265 269.567 89.8589 275.479 82 277C85.2449 294.926 108.809 312.48 123 321.999C170.18 353.647 233.793 351.277 280 319.34C293.004 310.353 313.74 293.38 317 277C308.078 276.961 305.331 271.47 299.701 265.884C290.694 256.947 283.891 248.568 275.7 239C266.04 227.717 253.373 225.01 239 225L245 206C259.653 205.837 264.03 187.275 264.91 175C265.608 165.255 261.921 158.55 252 164C254.268 147.158 253.483 123.741 263 110L260 110L260 109L267 106L267 105L261 106L274 99L274 97L262 95L270 88L254 90L256 74L255 74C254.363 81.7854 251.186 88.2222 246 94L249 71L241 74L240 65L220 66L220 65L231 59L231 58L214 59L216 54L204.91 47.1767L196 51.2392L176.26 58.9275L158 77z"/>
<path style="fill:#767a78; stroke:none;" d="M165.667 47.3333L166.333 47.6667L165.667 47.3333z"/>
<path style="fill:#101416; stroke:none;" d="M137 81L140 80C146.062 88.4068 146.304 76.9246 147 73L149 76L150 76C150.93 69.7038 156.492 52.6599 165 55L166 55L164 51L167 49L167 51L171 47C153.074 48.7867 140.266 64.2152 137 81z"/>
<path style="fill:#bf3c36; stroke:none;" d="M213 47L217 50L218 48L213 47z"/>
<path style="fill:#444946; stroke:none;" d="M163.667 48.3333L164.333 48.6667L163.667 48.3333z"/>
<path style="fill:#6a6f6d; stroke:none;" d="M184 48L185 49L184 48z"/>
<path style="fill:#ed090a; stroke:none;" d="M216 48C220.236 54.8691 229.067 52.6028 236 54.8202C252.12 59.976 267.832 66.6167 282 76.0038C316.448 98.8272 343.245 137.553 348.711 179C350.981 196.214 349.354 212.838 348 230L351 228L348 250C357.48 236.694 355 212.515 355 197C355 125.388 291.409 48.0497 216 48z"/>
<path style="fill:#313234; stroke:none;" d="M166 49L164 52L167 53L168 52L166 49z"/>
<path style="fill:#929393; stroke:none;" d="M174 49L175 50L174 49z"/>
<path style="fill:#858988; stroke:none;" d="M183 49L184 50L183 49z"/>
<path style="fill:#818585; stroke:none;" d="M200 49L201 50L200 49z"/>
<path style="fill:#5b5b61; stroke:none;" d="M208 49L209 50L208 49z"/>
<path style="fill:#f9cac9; stroke:none;" d="M147 54L152 50L147 54z"/>
<path style="fill:#909491; stroke:none;" d="M182 50L183 51L182 50z"/>
<path style="fill:#686a69; stroke:none;" d="M197.667 50.3333L198.333 50.6667L197.667 50.3333z"/>
<path style="fill:#a1a2a1; stroke:none;" d="M157 51L158 52L157 51z"/>
<path style="fill:#939593; stroke:none;" d="M181 51L182 52L181 51z"/>
<path style="fill:#5f6164; stroke:none;" d="M194.667 51.3333L195.333 51.6667L194.667 51.3333z"/>
<path style="fill:#848488; stroke:none;" d="M170 52L171 53L170 52z"/>
<path style="fill:#676466; stroke:none;" d="M212 52L213 53L212 52z"/>
<path style="fill:#ee6861; stroke:none;" d="M53 147C59.0976 142.514 62.476 129.671 66.4529 123C76.325 106.442 89.7555 91.6216 105 79.8873C110.584 75.5892 116.828 69.9182 124 69C128.545 64.1708 135.305 60.2379 142 60L147 53C115.055 57.1289 85.7075 87.9885 68.1906 112.996C60.4372 124.065 54.105 133.017 53 147z"/>
<path style="fill:#918f90; stroke:none;" d="M154 53L155 54L154 53z"/>
<path style="fill:#787479; stroke:none;" d="M188.667 53.3333L189.333 53.6667L188.667 53.3333z"/>
<path style="fill:#c2bec1; stroke:none;" d="M214.667 53.3333L215.333 53.6667L214.667 53.3333z"/>
<path style="fill:#eea49e; stroke:none;" d="M221 53L221 54L231 54L221 53z"/>
<path style="fill:#ff6362; stroke:none;" d="M257 53L257 54L265 56L257 53z"/>
<path style="fill:#666567; stroke:none;" d="M185.667 54.3333L186.333 54.6667L185.667 54.3333z"/>
<path style="fill:#d1555d; stroke:none;" d="M232 54L232 55L236 55L232 54z"/>
<path style="fill:#838d8b; stroke:none;" d="M177 55L178 56L177 55z"/>
<path style="fill:#605f60; stroke:none;" d="M182.667 55.3333L183.333 55.6667L182.667 55.3333z"/>
<path style="fill:#f3979e; stroke:none;" d="M236 55L236 56L239 56L236 55z"/>
<path style="fill:#e12126; stroke:none;" d="M330 55L350 75C346.545 67.5909 337.409 58.4551 330 55z"/>
<path style="fill:#999a9a; stroke:none;" d="M150 56L151 57L150 56z"/>
<path style="fill:#9d9d9d; stroke:none;" d="M164.333 56.6667L164.667 57.3333L164.333 56.6667z"/>
<path style="fill:#939393; stroke:none;" d="M149 57L150 58L149 57z"/>
<path style="fill:#676769; stroke:none;" d="M163.333 57.6667L163.667 58.3333L163.333 57.6667z"/>
<path style="fill:#484d52; stroke:none;" d="M175 57L175 59L177 59L175 57z"/>
<path style="fill:#47464a; stroke:none;" d="M214 57L223 59L223 58L214 57z"/>
<path style="fill:#aaabab; stroke:none;" d="M224 57L224 58L233 59L224 57z"/>
<path style="fill:#f74a42; stroke:none;" d="M240 57C240.855 61.882 245.215 61.6278 249 64L250 64L255 62L240 57z"/>
<path style="fill:#838383; stroke:none;" d="M148 58L149 59L148 58z"/>
<path style="fill:#bc1018; stroke:none;" d="M127 65L127 67L128 68L130 68L141 59L127 65z"/>
<path style="fill:#7d7d7e; stroke:none;" d="M147 59L148 60L147 59z"/>
<path style="fill:#3f4448; stroke:none;" d="M195 59L192 64L195 59z"/>
<path style="fill:#89888b; stroke:none;" d="M146 60L147 61L146 60z"/>
<path style="fill:#8c8e91; stroke:none;" d="M145 61L146 62L145 61z"/>
<path style="fill:#636264; stroke:none;" d="M226 61L227 62L226 61z"/>
<path style="fill:#5d5c61; stroke:none;" d="M226 65L229 66L236 62L226 65z"/>
<path style="fill:#ce1b1f; stroke:none;" d="M243 61L244 66L249 65L249 63L243 61z"/>
<path style="fill:#fe776c; stroke:none;" d="M276 61L295.83 76.4213L313 90C306.57 78.7708 288.012 65.6204 276 61z"/>
<path style="fill:#989b9d; stroke:none;" d="M144 62L145 63L144 62z"/>
<path style="fill:#fe6a5e; stroke:none;" d="M255 62L257 68C268.473 68.5736 282.458 79.8209 291 86.9205C309.728 102.486 326.749 122.327 336.254 145C340.741 155.702 341.966 167.247 346 178L347 178C346.968 130.038 300.514 74.4485 255 62z"/>
<path style="fill:#e32323; stroke:none;" d="M327 62C330.42 69.3334 338.435 76.3754 345 81C341.58 73.6666 333.565 66.6246 327 62z"/>
<path style="fill:#db8088; stroke:none;" d="M133.667 63.3333L134.333 63.6667L133.667 63.3333z"/>
<path style="fill:#737d7c; stroke:none;" d="M177 75L192 63L177 75z"/>
<path style="fill:#acb4b6; stroke:none;" d="M222 64L222 65L226 65L222 64z"/>
<path style="fill:#bd6262; stroke:none;" d="M136.667 64.3333L137.333 64.6667L136.667 64.3333z"/>
<path style="fill:#6b6c72; stroke:none;" d="M220 66L223 66L222 64L220 66z"/>
<path style="fill:#717375; stroke:none;" d="M142 65L143 66L142 65z"/>
<path style="fill:#999a9b; stroke:none;" d="M229 65L229 66L238 66L229 65z"/>
<path style="fill:#111419; stroke:none;" d="M194 68L194 69C203.487 69.2231 208.508 73.9375 214 81L222 80L215 68C208.103 65.8137 200.71 64.771 194 68z"/>
<path style="fill:#c88789; stroke:none;" d="M244.667 66.3333L245.333 66.6667L244.667 66.3333z"/>
<path style="fill:#0e1216; stroke:none;" d="M251 67L247 70L246 92L247 92C250.983 85.6599 253.247 74.3041 251 67z"/>
<path style="fill:#fd0f12; stroke:none;" d="M258 67L262 81L277 85L275 91C287.407 96.8956 298.29 109.327 306.575 120C341.494 164.985 341.714 219 318.681 269C316.525 273.68 318.453 278.526 315.736 283C275.517 349.246 184.658 363.089 123 321.329C107.886 311.093 91.7985 297.453 83.3264 281.015C80.6964 275.912 80.5576 269.61 77.7531 264C64.9572 238.405 59.93 209.108 65.5509 181C69.75 160.002 77.3628 140.602 89.7207 123C94.27 116.52 103.591 110.413 106.958 103.907C109.977 98.0727 105.34 91.6614 109 85C98.2407 87.4689 89.8877 98.6752 83.4252 107C65.858 129.629 53.2306 157.182 50.9144 186C44.1914 269.645 102.306 346.642 188 354.83C239.07 359.71 302.447 331.71 326.853 285C359.525 222.472 353.975 147.893 303 97C290.845 84.8649 274.831 71.8486 258 67z"/>
<path style="fill:#a10002; stroke:none;" d="M71 124L72 124C80.907 110.906 100.792 77.6154 119 83L123 68C103.852 75.0106 71.2462 101.92 71 124z"/>
<path style="fill:#9a9b9e; stroke:none;" d="M140 68L141 69L140 68z"/>
<path style="fill:#3b3c40; stroke:none;" d="M240 68L240 72L241 72L240 68z"/>
<path style="fill:#8c8a8a; stroke:none;" d="M249 68L250 69L249 68z"/>
<path style="fill:#fe776a; stroke:none;" d="M57 69L36 97L59 69L57 69z"/>
<path style="fill:#ee4645; stroke:none;" d="M64 119L65 119L91 87.1698L112 69C94.4957 76.363 69.4866 100.487 64 119z"/>
<path style="fill:#525656; stroke:none;" d="M214 69L218 73L219 72L214 69z"/>
<path style="fill:#6a6b67; stroke:none;" d="M248 69L249 70L248 69z"/>
<path style="fill:#6d6d6d; stroke:none;" d="M133 70L133 73L134 73L133 70z"/>
<path style="fill:#545a5a; stroke:none;" d="M139.333 70.6667L139.667 71.3333L139.333 70.6667z"/>
<path style="fill:#5b5e65; stroke:none;" d="M251 70L251 80L252 80L251 70z"/>
<path style="fill:#808083; stroke:none;" d="M245 71L246 72L245 71z"/>
<path style="fill:#db8c8f; stroke:none;" d="M121.333 72.6667L121.667 73.3333L121.333 72.6667z"/>
<path style="fill:#41413d; stroke:none;" d="M125.333 72.6667L125.667 73.3333L125.333 72.6667z"/>
<path style="fill:#6d6a6b; stroke:none;" d="M127.333 72.6667L127.667 73.3333L127.333 72.6667z"/>
<path style="fill:#535351; stroke:none;" d="M130 72L130 79L131 79L130 72z"/>
<path style="fill:#868689; stroke:none;" d="M138.333 72.6667L138.667 73.3333L138.333 72.6667z"/>
<path style="fill:#4f5456; stroke:none;" d="M197 72L197 73L202 74L197 72z"/>
<path style="fill:#9e9d9a; stroke:none;" d="M218 72L226 94L227 94C227 85.2046 226.746 76.6841 218 72z"/>
<path style="fill:#686870; stroke:none;" d="M227 72L236 79L227 72z"/>
<path style="fill:#f08386; stroke:none;" d="M259.333 72.6667L259.667 73.3333L259.333 72.6667z"/>
<path style="fill:#7b8180; stroke:none;" d="M202 73L202 74L207 75L202 73z"/>
<path style="fill:#434647; stroke:none;" d="M241.667 73.3333L242.333 73.6667L241.667 73.3333z"/>
<path style="fill:#8f8f8f; stroke:none;" d="M124.333 74.6667L124.667 75.3333L124.333 74.6667z"/>
<path style="fill:#3b3c3d; stroke:none;" d="M134.333 74.6667L134.667 75.3333L134.333 74.6667z"/>
<path style="fill:#a7abaa; stroke:none;" d="M254 74L254 77L255 77L254 74z"/>
<path style="fill:#df2020; stroke:none;" d="M49 75C33.1984 94.9113 20.0475 116.147 11.1806 140C-17.8171 218.006 12.5561 300.635 72.9853 354.424C94.8741 373.908 125.722 393.36 156 396L156 395C83.8921 374.49 26.5007 318.501 8.56019 245C2.70297 221.003 -0.779569 197.457 4.51698 173C9.95149 147.906 19.12 124.067 32.1952 102C36.0761 95.4503 50.6028 82.5492 49 75z"/>
<path style="fill:#9b9c99; stroke:none;" d="M206 75L206 76L216 83L206 75z"/>
<path style="fill:#828281; stroke:none;" d="M256 75L256 82L257 82L256 75z"/>
<path style="fill:#e89b9e; stroke:none;" d="M260 75L260 83L268 83L268 82L261 82L260 75z"/>
<path style="fill:#8e8e92; stroke:none;" d="M135 76L136 77L135 76z"/>
<path style="fill:#dbacb4; stroke:none;" d="M120 77L118 84C120.824 82.1711 121.263 80.1174 120 77z"/>
<path style="fill:#858587; stroke:none;" d="M123 77L123 86L124 86L123 77z"/>
<path style="fill:#909193; stroke:none;" d="M136 77L136 79L138 79L138 77L136 77z"/>
<path style="fill:#4c5150; stroke:none;" d="M254.333 77.6667L254.667 78.3333L254.333 77.6667z"/>
<path style="fill:#c82e31; stroke:none;" d="M261 78L261 82L266 82L266 81L261 78z"/>
<path style="fill:#494b4d; stroke:none;" d="M197 79L197 80L208 90L209 90C207.526 83.8177 203.165 80.1931 197 79z"/>
<path style="fill:#363b3d; stroke:none;" d="M235 79L238 85L239 85L235 79z"/>
<path style="fill:#a4a3a7; stroke:none;" d="M251 80L250 88L251 88L251 80z"/>
<path style="fill:#8f9190; stroke:none;" d="M253 80L253 83L254 83L253 80z"/>
<path style="fill:#fcd9d8; stroke:none;" d="M110 81L110 87C105.954 88.3429 106.047 91.0654 106 95L107 95L111 88L110 81z"/>
<path style="fill:#38393d; stroke:none;" d="M126 81L130 96L131 96L126 81z"/>
<path style="fill:#515a5c; stroke:none;" d="M147 81L153 86L153 85L147 81z"/>
<path style="fill:#cf655b; stroke:none;" d="M109 82L108 87L109 82z"/>
<path style="fill:#b5b8b4; stroke:none;" d="M256.333 82.6667L256.667 83.3333L256.333 82.6667z"/>
<path style="fill:#101519; stroke:none;" d="M147 83C149.842 90.7637 155.68 98.0227 164 100L164 99L160 97L160 96L185 99L185 98L163 92.3766L147 83z"/>
<path style="fill:#ee9e9b; stroke:none;" d="M270 83L270 84L273 84L270 83z"/>
<path style="fill:#4c4c4a; stroke:none;" d="M227 84L227 93L228 93L227 84z"/>
<path style="fill:#595b5a; stroke:none;" d="M255.333 84.6667L255.667 85.3333L255.333 84.6667z"/>
<path style="fill:#bbb8b6; stroke:none;" d="M113.333 85.6667L113.667 86.3333L113.333 85.6667z"/>
<path style="fill:#ed8e8d; stroke:none;" d="M276.333 85.6667L276.667 86.3333L276.333 85.6667z"/>
<path style="fill:#ffaca2; stroke:none;" d="M304 85L325.497 111L347 149C349.708 142.358 343.919 133.597 340.537 128C331.843 113.612 322.036 90.0159 304 85z"/>
<path style="fill:#939394; stroke:none;" d="M152 86L152 87C157.969 90.9367 162.818 92.9794 170 93L152 86z"/>
<path style="fill:#7a7a7b; stroke:none;" d="M117 87L118 88L117 87z"/>
<path style="fill:#a5a2a3; stroke:none;" d="M262 87L262 88L271 89L262 87z"/>
<path style="fill:#a7a7ac; stroke:none;" d="M114.333 88.6667L114.667 89.3333L114.333 88.6667z"/>
<path style="fill:#747477; stroke:none;" d="M249 88L246 94L251 88L249 88z"/>
<path style="fill:#464849; stroke:none;" d="M254.333 88.6667L254.667 89.3333L254.333 88.6667z"/>
<path style="fill:#636265; stroke:none;" d="M257 88L257 89L261 89L257 88z"/>
<path style="fill:#a9acac; stroke:none;" d="M124 89L123 92L124 89z"/>
<path style="fill:#16171a; stroke:none;" d="M115 90C117.106 95.6181 120.381 98.8637 126 101C123.765 96.2007 120.038 91.8593 115 90z"/>
<path style="fill:#e5554e; stroke:none;" d="M274 90L278 92L278 91L274 90z"/>
<path style="fill:#fd6961; stroke:none;" d="M313 90L319 96L313 90z"/>
<path style="fill:#b8b8bb; stroke:none;" d="M115.333 91.6667L115.667 92.3333L115.333 91.6667z"/>
<path style="fill:#9f9f9d; stroke:none;" d="M109.333 92.6667L109.667 93.3333L109.333 92.6667z"/>
<path style="fill:#6e7172; stroke:none;" d="M168 93L168 94L174 94L168 93z"/>
<path style="fill:#e3bab6; stroke:none;" d="M275 92L279 99L280 99L280 96C316.837 125.897 340.987 173.755 332.536 222C330.779 232.031 328.729 242.54 324.855 252C321.744 259.597 316.447 266.884 315 275C322.705 266.132 326.81 253.126 330 242C341.112 203.243 334.778 160.48 312.329 127C303.982 114.551 290.443 95.5437 275 92z"/>
<path style="fill:#939391; stroke:none;" d="M112 93L113 94L112 93z"/>
<path style="fill:#858584; stroke:none;" d="M113 94L114 95L113 94z"/>
<path style="fill:#222524; stroke:none;" d="M262 95L269 97L269 96L265 94L262 95z"/>
<path style="fill:#ababb0; stroke:none;" d="M117 95L116 97L118 97L117 95z"/>
<path style="fill:#c1bebf; stroke:none;" d="M110.333 96.6667L110.667 97.3333L110.333 96.6667z"/>
<path style="fill:#5a5e5e; stroke:none;" d="M269 96L269 97L272 97L269 96z"/>
<path style="fill:#740103; stroke:none;" d="M280 96C278.661 104.664 288.079 109.14 293.285 115.004C304.717 127.882 314.449 141.77 320.575 158C330.63 184.641 332.383 214.952 322.782 242C319.981 249.893 317.046 257.535 313.223 265C312.27 266.86 309.314 271.015 311.615 272.914C315.45 276.078 320.184 263.206 321.218 261C327.468 247.668 331.902 231.716 332.91 217C335.892 173.497 320.326 119.283 280 96z"/>
<path style="fill:#fc7169; stroke:none;" d="M319 96L325 103L319 96z"/>
<path style="fill:#fe7d74; stroke:none;" d="M35 97C23.0341 112.997 10.642 137.896 9 158L10 158L28.3302 112.985L35 97z"/>
<path style="fill:#e8797e; stroke:none;" d="M107.333 97.6667L107.667 98.3333L107.333 97.6667z"/>
<path style="fill:#4e5154; stroke:none;" d="M117 97L117 98L126 102L126 101L117 97z"/>
<path style="fill:#676665; stroke:none;" d="M274.333 97.6667L274.667 98.3333L274.333 97.6667z"/>
<path style="fill:#c2c4c3; stroke:none;" d="M275.333 97.6667L275.667 98.3333L275.333 97.6667z"/>
<path style="fill:#bebfbe; stroke:none;" d="M111.333 98.6667L111.667 99.3333L111.333 98.6667z"/>
<path style="fill:#8b898a; stroke:none;" d="M270.667 99.3333L271.333 99.6667L270.667 99.3333z"/>
<path style="fill:#d44d53; stroke:none;" d="M108 100L108 104L109 104L108 100z"/>
<path style="fill:#6b6d6e; stroke:none;" d="M112 100L113 101L112 100z"/>
<path style="fill:#fe5950; stroke:none;" d="M278 100C258.415 111.986 259.642 137.096 257 158C279.701 161.503 263.436 206.023 247 209L247.603 221.143L270.961 231.34L310 273C315.423 258.097 323.539 244.914 326.54 229C335.882 179.463 316.5 131.607 278 100z"/>
<path style="fill:#e8a6a6; stroke:none;" d="M109 101L109 104L110 104L109 101z"/>
<path style="fill:#575554; stroke:none;" d="M266 101L267 102L266 101z"/>
<path style="fill:#797c7b; stroke:none;" d="M114 103L115 104L114 103z"/>
<path style="fill:#6e6c6f; stroke:none;" d="M263 103L264 104L263 103z"/>
<path style="fill:#fbd0d0; stroke:none;" d="M102 108L102 109L109 104L102 108z"/>
<path style="fill:#646769; stroke:none;" d="M115 104L116 105L115 104z"/>
<path style="fill:#808183; stroke:none;" d="M261 106L264 106L263 104L261 106z"/>
<path style="fill:#717175; stroke:none;" d="M116 105L117 106L116 105z"/>
<path style="fill:#646567; stroke:none;" d="M117 106L118 107L117 106z"/>
<path style="fill:#434446; stroke:none;" d="M146.667 106.333L147.333 106.667L146.667 106.333z"/>
<path style="fill:#8e9396; stroke:none;" d="M140 109L140 110L156 107C150.879 104.856 144.878 106.901 140 109z"/>
<path style="fill:#750000; stroke:none;" d="M76 108C59.8927 130.489 47.1613 157.11 44.1736 185C34.8725 271.825 102.915 360 193 360L192 355C118.525 351.845 55.0709 286.674 50.0895 214C47.589 177.52 60.3231 139.031 78 108L76 108z"/>
<path style="fill:#626566; stroke:none;" d="M113 108L113 109L118 109L113 108z"/>
<path style="fill:#9ea0a0; stroke:none;" d="M260 109L260 110L264 110L260 109z"/>
<path style="fill:#626567; stroke:none;" d="M110.667 109.333L111.333 109.667L110.667 109.333z"/>
<path style="fill:#f1a0a4; stroke:none;" d="M98 110C91.249 125.333 79.0917 137.891 72.6489 154C61.9565 180.734 60.6612 213.352 68.4282 241C71.9158 253.414 78.6545 264.059 83 276L89 275L89 274C76.9594 270.458 70.8416 243.994 68.74 233C62.5622 200.684 65.364 168.124 82.0008 139C86.8125 130.577 92.0075 120.753 100 115L100 110L98 110z"/>
<path style="fill:#434449; stroke:none;" d="M139.667 110.333L140.333 110.667L139.667 110.333z"/>
<path style="fill:#c7c2c2; stroke:none;" d="M102 111L102 112L106 112L102 111z"/>
<path style="fill:#707173; stroke:none;" d="M124 115L128 113L124 115z"/>
<path style="fill:#fc7976; stroke:none;" d="M332 112L347 143L348 143C347.476 132.906 339.473 118.656 332 112z"/>
<path style="fill:#282c30; stroke:none;" d="M140 113L140 114L146 114L140 113z"/>
<path style="fill:#6e4836; stroke:none;" d="M199 113L199 114L207 114L199 113z"/>
<path style="fill:#cd9a81; stroke:none;" d="M207 113L207 114L221 114L207 113z"/>
<path style="fill:#725242; stroke:none;" d="M221 113L221 114L224 114L221 113z"/>
<path style="fill:#91928e; stroke:none;" d="M260 113L261 114L260 113z"/>
<path style="fill:#847e83; stroke:none;" d="M104 114L105 115L104 114z"/>
<path style="fill:#b8bcc1; stroke:none;" d="M115 116L115 117L124 114L115 116z"/>
<path style="fill:#6d6f74; stroke:none;" d="M133 121L144 115C138.838 112.92 135.133 116.481 133 121z"/>
<path style="fill:#9a6f5b; stroke:none;" d="M194 114L194 115L198 115L194 114z"/>
<path style="fill:#fda87e; stroke:none;" d="M165 137L152 130L155 148C161.619 148 170.738 146.39 176.96 148.894C179.54 149.932 185.092 155.38 180.664 157.683C173.509 161.404 158.627 148.613 152.273 157.424C150.655 159.668 150.749 164.295 150 167L161 162L161 163L155 166L155 167L172 164L170 161L170 160L179 166L176 167L179 174L152 177C152.001 188.578 153.961 202.919 158.997 213.424C163.326 222.456 166.901 233.702 173.279 241.421C192.755 264.993 218.633 246.692 232.761 228C250.444 204.605 249.784 162.329 239.085 137C235.601 128.751 236.909 121.109 229 115C230.062 130.865 211.871 122.18 217 115C210.628 112.326 201.708 114.16 195 114.831C179.327 116.398 165.165 117.376 165 137z"/>
<path style="fill:#fdc6a3; stroke:none;" d="M217.318 114.742C210.406 118.269 221.118 127.027 226.683 124.257C235.09 120.072 224.13 111.267 217.318 114.742z"/>
<path style="fill:#7c604e; stroke:none;" d="M226.667 114.333L227.333 114.667L226.667 114.333z"/>
<path style="fill:#82847e; stroke:none;" d="M259 114L260 115L259 114z"/>
<path style="fill:#e60a0a; stroke:none;" d="M89 273C85.7074 261.57 78.4298 251.51 75.0039 240C66.7137 212.148 69.2581 183.047 79.0895 156C84.2569 141.784 98.1983 129.956 102 116C92.1398 115.172 84.3574 133.51 80.3086 141C64.6877 169.897 61.3956 207.395 69.7562 239C71.8454 246.898 78.7919 274.511 89 273z"/>
<path style="fill:#424649; stroke:none;" d="M113 115L113 116L121 116L113 115z"/>
<path style="fill:#8b604c; stroke:none;" d="M175 115L175 116L188 116L175 115z"/>
<path style="fill:#757370; stroke:none;" d="M258 115L259 116L258 115z"/>
<path style="fill:#8e8a8b; stroke:none;" d="M107 116L108 117L107 116z"/>
<path style="fill:#343939; stroke:none;" d="M152 116C150.659 120.581 150.744 125.177 155 128L152 116z"/>
<path style="fill:#7b5140; stroke:none;" d="M170.667 116.333L171.333 116.667L170.667 116.333z"/>
<path style="fill:#d68d6a; stroke:none;" d="M163 137L167.417 126.001L176 116C160.638 117.265 162.593 125.285 163 137z"/>
<path style="fill:#6b6c66; stroke:none;" d="M257 116L257 120L258 120L257 116z"/>
<path style="fill:#fe584f; stroke:none;" d="M102 117C78.2851 152.887 62.902 189.017 72.8881 233C75.9801 246.618 82.6939 258.255 88 271L89 271C92.4382 263.632 100.245 259.365 105.61 253.424C112.645 245.635 116.403 236.115 125 229.39C129.185 226.117 142.444 225.092 144.353 220.57C147.169 213.902 136.509 212.055 133.301 208.811C124.035 199.443 108.309 169.755 128 163C127.981 156.38 126.197 141.177 120.606 136.858C117.755 134.656 113.208 136.011 110.757 133.397C108.326 130.804 110.341 127.14 109.643 124.104C108.832 120.576 104.826 118.715 102 117z"/>
<path style="fill:#777a80; stroke:none;" d="M117 117L117 118L121 118L117 117z"/>
<path style="fill:#e52727; stroke:none;" d="M29 118L16 153L17 153C19.1814 143.795 32.0268 126.749 29 118z"/>
<path style="fill:#676567; stroke:none;" d="M113.667 119.333L114.333 119.667L113.667 119.333z"/>
<path style="fill:#c0c6c8; stroke:none;" d="M116.333 120.667L116.667 121.333L116.333 120.667z"/>
<path style="fill:#333436; stroke:none;" d="M117 126L125 121C121.211 120.238 119.105 123.107 117 126z"/>
<path style="fill:#8f918f; stroke:none;" d="M257 120L257 128L258 128L257 120z"/>
<path style="fill:#161719; stroke:none;" d="M139 121L138 129L139 129L141 121L139 121z"/>
<path style="fill:#e79c95; stroke:none;" d="M261 121L261 129L262 129L261 121z"/>
<path style="fill:#2e2726; stroke:none;" d="M147 122L148 131L149 131L147 122z"/>
<path style="fill:#8d9293; stroke:none;" d="M115 123L116 124L115 123z"/>
<path style="fill:#3f241a; stroke:none;" d="M160 124L160 129L161 129L160 124z"/>
<path style="fill:#a37b67; stroke:none;" d="M236.333 124.667L236.667 125.333L236.333 124.667z"/>
<path style="fill:#8c685c; stroke:none;" d="M237 126L237 130L238 130L237 126z"/>
<path style="fill:#f47774; stroke:none;" d="M382.333 126.667L382.667 127.333L382.333 126.667z"/>
<path style="fill:#696e6f; stroke:none;" d="M113.333 127.667L113.667 128.333L113.333 127.667z"/>
<path style="fill:#e69a99; stroke:none;" d="M109 128L109 133L110 133L109 128z"/>
<path style="fill:#bbc0c2; stroke:none;" d="M117.667 128.333L118.333 128.667L117.667 128.333z"/>
<path style="fill:#ed6b6a; stroke:none;" d="M383.333 128.667L383.667 129.333L383.333 128.667z"/>
<path style="fill:#684b40; stroke:none;" d="M151 129L151 131L153 129L151 129z"/>
<path style="fill:#5c3b2a; stroke:none;" d="M161.333 129.667L161.667 130.333L161.333 129.667z"/>
<path style="fill:#a29da0; stroke:none;" d="M118 130L118 133L119 133L118 130z"/>
<path style="fill:#434342; stroke:none;" d="M123.667 130.333L124.333 130.667L123.667 130.333z"/>
<path style="fill:#e4966c; stroke:none;" d="M144 130C144.001 138.638 141.271 145.829 141.015 154C140.161 181.299 147.117 222.174 171 239C170.768 231.721 165.665 229.057 162.802 222.961C158.415 213.617 156.394 203.987 154.334 194C153.241 188.698 149.424 180.615 155 177L155 176L153 169L152 157L147 159C153.149 149.711 158.502 149 169 149L169 148L155 148L154 133C149.388 134.337 147.567 132.904 144 130z"/>
<path style="fill:#98979b; stroke:none;" d="M124.333 131.667L124.667 132.333L124.333 131.667z"/>
<path style="fill:#e9aba4; stroke:none;" d="M260 131L260 138L261 138L260 131z"/>
<path style="fill:#985b42; stroke:none;" d="M152 132L151 134L153 134L152 132z"/>
<path style="fill:#3d150f; stroke:none;" d="M162 132L160 135L164 136L162 132z"/>
<path style="fill:#e83633; stroke:none;" d="M55 133L51 144L52 144L55 133z"/>
<path style="fill:#efa09c; stroke:none;" d="M110.333 133.667L110.667 134.333L110.333 133.667z"/>
<path style="fill:#e0a8a0; stroke:none;" d="M114 134L114 135L118 135L114 134z"/>
<path style="fill:#777777; stroke:none;" d="M256 134L256 137L257 137L256 134z"/>
<path style="fill:#9e9f9f; stroke:none;" d="M125.333 135.667L125.667 136.333L125.333 135.667z"/>
<path style="fill:#e75857; stroke:none;" d="M386.333 135.667L386.667 136.333L386.333 135.667z"/>
<path style="fill:#b0b2b1; stroke:none;" d="M126.333 138.667L126.667 139.333L126.333 138.667z"/>
<path style="fill:#f0b9b6; stroke:none;" d="M259 138L259 143L260 143L259 138z"/>
<path style="fill:#595b5e; stroke:none;" d="M255 139L255 144L256 144L255 139z"/>
<path style="fill:#3d1d11; stroke:none;" d="M144 140L144 145L145 145L144 140z"/>
<path style="fill:#fd6158; stroke:none;" d="M348 140L358.826 185L356 238L357 238C363.283 207.558 364.626 167.864 348 140z"/>
<path style="fill:#c35654; stroke:none;" d="M52 141C29.4446 197.498 37.4573 265.012 79.591 310.941C82.7577 314.393 87.1519 315.632 90.5756 318.773C101.269 328.584 111.995 338.654 125.286 344.973C159.438 361.21 191.241 367.31 229 361.41C236.839 360.185 259.934 355.632 263 348C236.901 354.185 214.592 362.932 187 360.91C119.053 355.929 58.8764 299.267 46.4599 233C43.6375 217.937 42.1217 200.247 44.3002 185C46.4313 170.084 51.8396 155.85 54 141L52 141z"/>
<path style="fill:#a7a7a6; stroke:none;" d="M127.333 141.667L127.667 142.333L127.333 141.667z"/>
<path style="fill:#a4a4a7; stroke:none;" d="M255 144L255 147L256 147L255 144z"/>
<path style="fill:#b0b1b2; stroke:none;" d="M128.333 145.667L128.667 146.333L128.333 145.667z"/>
<path style="fill:#6d4234; stroke:none;" d="M225 145L225 146L230 146L225 145z"/>
<path style="fill:#714b3d; stroke:none;" d="M217 146L217 147L222 147L217 146z"/>
<path style="fill:#000000; stroke:none;" d="M206 156L236 153C231.08 142.573 206.309 143.26 206 156z"/>
<path style="fill:#684539; stroke:none;" d="M207 147L207 148L214 148L207 147z"/>
<path style="fill:#825c4b; stroke:none;" d="M244.333 147.667L244.667 148.333L244.333 147.667z"/>
<path style="fill:#3d3e3f; stroke:none;" d="M254 147L254 150L255 150L254 147z"/>
<path style="fill:#808283; stroke:none;" d="M129.333 148.667L129.667 149.333L129.333 148.667z"/>
<path style="fill:#ac7c66; stroke:none;" d="M169 148L169 149L177 149L169 148z"/>
<path style="fill:#fb9190; stroke:none;" d="M348 148C346.742 156.476 352.193 166.497 353.562 175C356.146 191.05 356.672 206.851 354.715 223C352.855 238.346 348.049 253.942 341.694 268C338.084 275.987 331.138 284.306 330 293C338.695 287.893 341.785 274.779 345.938 266.17C358.895 239.307 363.32 203.965 356.455 175C354.37 166.2 354.576 154.924 348 148z"/>
<path style="fill:#000000; stroke:none;" d="M148 158C160.582 154.027 168.018 156.358 181 158C179.444 142.949 152.838 146.606 148 158z"/>
<path style="fill:#a67562; stroke:none;" d="M177 149L177 150L180 150L177 149z"/>
<path style="fill:#311c17; stroke:none;" d="M205 149L204 157L208 157L208 156L207 149L205 149z"/>
<path style="fill:#5d3324; stroke:none;" d="M179 150L179 158L179 159C184.137 157.293 183.011 152.532 179 150z"/>
<path style="fill:#858483; stroke:none;" d="M254.333 150.667L254.667 151.333L254.333 150.667z"/>
<path style="fill:#edbab7; stroke:none;" d="M257 150L257 155L258 155L257 150z"/>
<path style="fill:#4b4d4b; stroke:none;" d="M130 151L130 154L131 154L130 151z"/>
<path style="fill:#c4a189; stroke:none;" d="M140 151L140 176L141 176L140 151z"/>
<path style="fill:#623c31; stroke:none;" d="M222.667 151.333L223.333 151.667L222.667 151.333z"/>
<path style="fill:#b4816a; stroke:none;" d="M224 151L224 152L230 152L224 151z"/>
<path style="fill:#653322; stroke:none;" d="M236 152L235 154L237 154L236 152z"/>
<path style="fill:#a27963; stroke:none;" d="M245 152L245 156L246 156L245 152z"/>
<path style="fill:#332017; stroke:none;" d="M139 153L139 170L140 170L139 153z"/>
<path style="fill:#b57d65; stroke:none;" d="M203 153L203 157L204 157L203 153z"/>
<path style="fill:#6e4336; stroke:none;" d="M216.667 153.333L217.333 153.667L216.667 153.333z"/>
<path style="fill:#bcbdbb; stroke:none;" d="M130 154L130 157L131 157L130 154z"/>
<path style="fill:#603d31; stroke:none;" d="M155 154L155 155L162 155L155 154z"/>
<path style="fill:#a46c5b; stroke:none;" d="M214.667 154.333L215.333 154.667L214.667 154.333z"/>
<path style="fill:#8d604b; stroke:none;" d="M153.667 155.333L154.333 155.667L153.667 155.333z"/>
<path style="fill:#57342b; stroke:none;" d="M166 155L166 156L169 156L166 155z"/>
<path style="fill:#754939; stroke:none;" d="M210.667 155.333L211.333 155.667L210.667 155.333z"/>
<path style="fill:#535252; stroke:none;" d="M131 156L131 159L132 159L131 156z"/>
<path style="fill:#e59777; stroke:none;" d="M204 157L204 158L208 169C216.234 161.516 220.811 162.986 231 164C224.59 156.397 213.301 155.85 204 157z"/>
<path style="fill:#767177; stroke:none;" d="M253 156L253 159L254 159L253 156z"/>
<path style="fill:#874c35; stroke:none;" d="M147 157L147 159L149 159L147 157z"/>
<path style="fill:#442820; stroke:none;" d="M174 157L174 158L178 158L174 157z"/>
<path style="fill:#765142; stroke:none;" d="M246 157L246 178L247 178L246 157z"/>
<path style="fill:#f0b1a8; stroke:none;" d="M257 158L257 159L262 159L257 158z"/>
<path style="fill:#d82e33; stroke:none;" d="M349 158L350 165L351 165L349 158z"/>
<path style="fill:#eaa19f; stroke:none;" d="M128 160L125 163L125 164L130 164L128 160z"/>
<path style="fill:#af6047; stroke:none;" d="M170 160L170 161L179 166L170 160z"/>
<path style="fill:#a2573a; stroke:none;" d="M208 165L213 160L208 165z"/>
<path style="fill:#c67558; stroke:none;" d="M227 160L227 161L229 164L229 165L234 164L234 163L227 160z"/>
<path style="fill:#484749; stroke:none;" d="M252 160L254 164L252 160z"/>
<path style="fill:#cb8064; stroke:none;" d="M172 161L176 167L177 166L172 161z"/>
<path style="fill:#a6a5ac; stroke:none;" d="M132.333 162.667L132.667 163.333L132.333 162.667z"/>
<path style="fill:#d17652; stroke:none;" d="M151 167L151 169C153.923 169.072 154.687 168.892 155 166L161 163L151 167z"/>
<path style="fill:#714536; stroke:none;" d="M218 162L218 163L225 163L218 162z"/>
<path style="fill:#797978; stroke:none;" d="M254 162L255 163L254 162z"/>
<path style="fill:#747677; stroke:none;" d="M262 162L263 163L262 162z"/>
<path style="fill:#714538; stroke:none;" d="M213.667 163.333L214.333 163.667L213.667 163.333z"/>
<path style="fill:#000000; stroke:none;" d="M208 171L214 167C215.362 175.538 224.8 173.686 226 166L231 167L227 173L235 167C226.43 162.502 211.982 159.416 208 171z"/>
<path style="fill:#74483c; stroke:none;" d="M225.667 163.333L226.333 163.667L225.667 163.333z"/>
<path style="fill:#5c4139; stroke:none;" d="M257 163L257 164L261 164L257 163z"/>
<path style="fill:#55545a; stroke:none;" d="M133.333 164.667L133.667 165.333L133.333 164.667z"/>
<path style="fill:#925d51; stroke:none;" d="M164 164L164 165L172 165L164 164z"/>
<path style="fill:#8c6356; stroke:none;" d="M232 165L237 168L235 164L232 165z"/>
<path style="fill:#e8a382; stroke:none;" d="M251 176L261 168C260.999 173.137 261.878 179.016 257 182L253 197L252 197L252 193C247.117 195.046 247.017 198.081 247 203C258.225 202.151 268.167 175.743 261.821 166.319C256.345 158.188 251.179 171.906 251 176z"/>
<path style="fill:#000000; stroke:none;" d="M152 170L158 175C157.245 171.198 157.313 169.634 161 168C162.605 175.859 172.186 177.697 174 169L179 172C173.644 160.793 160.369 165.014 152 170z"/>
<path style="fill:#716c6e; stroke:none;" d="M264.333 165.667L264.667 166.333L264.333 165.667z"/>
<path style="fill:#f8b5b4; stroke:none;" d="M267 165L267 177L268 177L267 165z"/>
<path style="fill:#fe7874; stroke:none;" d="M6 166C-8.63721 230.033 19.1612 300.579 66.0147 345.089C78.4021 356.856 93.5141 371.366 110 377C104.657 370.077 95.9909 365.932 89 360.841C80.3735 354.559 72.0678 346.752 64.26 339.5C44.8803 321.499 28.1898 296.365 18.3248 271.83C9.92227 250.932 3.76454 224.617 3.04321 202C2.68796 190.861 9.83303 176.687 6 166z"/>
<path style="fill:#302c2e; stroke:none;" d="M125 166L125 167L130 167L125 166z"/>
<path style="fill:#95939b; stroke:none;" d="M133 166L132 168L134 168L133 166z"/>
<path style="fill:#75787c; stroke:none;" d="M221.333 166.667L221.667 167.333L221.333 166.667z"/>
<path style="fill:#dae0e2; stroke:none;" d="M222 166L222 168L224 168L224 166L222 166z"/>
<path style="fill:#8c8e8b; stroke:none;" d="M226 168L229 167L226 168z"/>
<path style="fill:#686865; stroke:none;" d="M212 167L213 170L214 170L214 167L212 167z"/>
<path style="fill:#fcf8f5; stroke:none;" d="M225 172L230 167L225 172z"/>
<path style="fill:#a79996; stroke:none;" d="M230.333 167.667L230.667 168.333L230.333 167.667z"/>
<path style="fill:#725546; stroke:none;" d="M126 168L126 169L129 169L126 168z"/>
<path style="fill:#888982; stroke:none;" d="M158 168L158 169L161 169L158 168z"/>
<path style="fill:#5f5a5b; stroke:none;" d="M169.333 168.667L169.667 169.333L169.333 168.667z"/>
<path style="fill:#dad5d8; stroke:none;" d="M170.333 168.667L170.667 169.333L170.333 168.667z"/>
<path style="fill:#999699; stroke:none;" d="M171.333 168.667L171.667 169.333L171.333 168.667z"/>
<path style="fill:#f8e6e1; stroke:none;" d="M208 173L215 173L213 168L208 173z"/>
<path style="fill:#51352d; stroke:none;" d="M251 168L251 171L252 171L251 168z"/>
<path style="fill:#371b17; stroke:none;" d="M258 168L259 175L261 175L261 168L258 168z"/>
<path style="fill:#afaead; stroke:none;" d="M265 168L265 175L266 175L265 168z"/>
<path style="fill:#ec9576; stroke:none;" d="M125 169L125 173L136 180C135.614 172.944 132.098 169.23 125 169z"/>
<path style="fill:#fcfcfa; stroke:none;" d="M156 170L163 175C161.748 170.923 160.394 168.979 156 170z"/>
<path style="fill:#838083; stroke:none;" d="M174.667 169.333L175.333 169.667L174.667 169.333z"/>
<path style="fill:#ab6a5b; stroke:none;" d="M233 169L227 174C230.692 174.683 235.119 173.409 233 169z"/>
<path style="fill:#683225; stroke:none;" d="M257 169L253 178L259 170L257 169z"/>
<path style="fill:#db7574; stroke:none;" d="M119 170C119 180.06 119.819 187.727 124 197L125 197L119 170z"/>
<path style="fill:#35342f; stroke:none;" d="M122 170L122 179L123 179L122 170z"/>
<path style="fill:#f8f1f3; stroke:none;" d="M174 170L173 174L179 174L174 170z"/>
<path style="fill:#8d5846; stroke:none;" d="M207.333 170.667L207.667 171.333L207.333 170.667z"/>
<path style="fill:#e17078; stroke:none;" d="M331.333 170.667L331.667 171.333L331.333 170.667z"/>
<path style="fill:#e9ae91; stroke:none;" d="M124 171C124.007 181.948 126.62 198.99 137 205L127.765 185.996L124 171z"/>
<path style="fill:#cdb5b6; stroke:none;" d="M224 171L227 173L227 172L224 171z"/>
<path style="fill:#df8563; stroke:none;" d="M257 171C254.051 175.877 253.239 180.896 260 182L261 178L259 171L257 171z"/>
<path style="fill:#dfd0c1; stroke:none;" d="M141 172C141 197.463 150.542 234.767 177 245C167.636 232.756 157.036 224.979 151.086 210C146.534 198.538 147.097 182.178 141 172z"/>
<path style="fill:#9a9392; stroke:none;" d="M157 172L158 173L157 172z"/>
<path style="fill:#cc8877; stroke:none;" d="M208 173L208 174L230 176L230 175L224 172C220.907 173.709 218.897 174.159 216 172L208 173z"/>
<path style="fill:#fe2825; stroke:none;" d="M347 172L345.485 231L335.179 264L328 281L329 281C344.346 257.73 350 228.43 350 201C350 192.08 350.932 180.182 347 172z"/>
<path style="fill:#4a271f; stroke:none;" d="M126 176L127 176L129 174C126.86 172.882 126.473 173.749 126 176z"/>
<path style="fill:#a35a42; stroke:none;" d="M153 173C154.873 178.325 161.242 177 166 177L153 173z"/>
<path style="fill:#4b2823; stroke:none;" d="M216 173L216 174L223 174L216 173z"/>
<path style="fill:#71372e; stroke:none;" d="M225.667 173.333L226.333 173.667L225.667 173.333z"/>
<path style="fill:#a76a72; stroke:none;" d="M330.333 173.667L330.667 174.333L330.333 173.667z"/>
<path style="fill:#1f0302; stroke:none;" d="M127 174L127 180L128 180L131 177L131 175L127 174z"/>
<path style="fill:#622117; stroke:none;" d="M158 174L161 176L158 174z"/>
<path style="fill:#51281c; stroke:none;" d="M165 175L165 176L169 176L165 175z"/>
<path style="fill:#795a53; stroke:none;" d="M250 175L250 178L252 177L252 176L250 175z"/>
<path style="fill:#774030; stroke:none;" d="M259 175L259 178L261 178L261 175L259 175z"/>
<path style="fill:#986553; stroke:none;" d="M126 176L126 182L127 182L126 176z"/>
<path style="fill:#6c3027; stroke:none;" d="M131 176L135 183L131 176z"/>
<path style="fill:#6b6557; stroke:none;" d="M140 176L140 179L141 179L140 176z"/>
<path style="fill:#c47050; stroke:none;" d="M129 177L127 184L132 192L131 177L129 177z"/>
<path style="fill:#a47a6c; stroke:none;" d="M262 177L262 180L263 180L262 177z"/>
<path style="fill:#8a3521; stroke:none;" d="M128 178L127 184L129 184L128 178z"/>
<path style="fill:#432922; stroke:none;" d="M246 178L246 183L247 183L246 178z"/>
<path style="fill:#848284; stroke:none;" d="M264.333 178.667L264.667 179.333L264.333 178.667z"/>
<path style="fill:#ae676a; stroke:none;" d="M331 178L331 181L332 181L331 178z"/>
<path style="fill:#797573; stroke:none;" d="M122 179L122 182L123 182L122 179z"/>
<path style="fill:#8f7667; stroke:none;" d="M136 179L137 182L136 179z"/>
<path style="fill:#4c2419; stroke:none;" d="M256 182L256 189L257 189L256 182z"/>
<path style="fill:#916d5f; stroke:none;" d="M261.333 182.667L261.667 183.333L261.333 182.667z"/>
<path style="fill:#505555; stroke:none;" d="M263 182L263 185L264 185L263 182z"/>
<path style="fill:#9c555d; stroke:none;" d="M332 183L332 187L333 187L332 183z"/>
<path style="fill:#909190; stroke:none;" d="M123.333 184.667L123.667 185.333L123.333 184.667z"/>
<path style="fill:#756159; stroke:none;" d="M125 184L125 187L126 187L125 184z"/>
<path style="fill:#cca890; stroke:none;" d="M249 184L251 188L249 184z"/>
<path style="fill:#f2767b; stroke:none;" d="M64 185L64 189L65 189L64 185z"/>
<path style="fill:#846251; stroke:none;" d="M248 185L250 190L248 185z"/>
<path style="fill:#a4978f; stroke:none;" d="M142 187L142 190L143 190L142 187z"/>
<path style="fill:#949291; stroke:none;" d="M262.333 187.667L262.667 188.333L262.333 187.667z"/>
<path style="fill:#b59075; stroke:none;" d="M138 188L140 193L138 188z"/>
<path style="fill:#553d30; stroke:none;" d="M139 188L139 191L140 191L139 188z"/>
<path style="fill:#39241f; stroke:none;" d="M247 188L249 192L247 188z"/>
<path style="fill:#ec5757; stroke:none;" d="M399 188L399 195L400 195L399 188z"/>
<path style="fill:#de3839; stroke:none;" d="M355 189L355 215L356 215L355 189z"/>
<path style="fill:#d3413b; stroke:none;" d="M328 190L328 218L329 218L328 190z"/>
<path style="fill:#dd4950; stroke:none;" d="M65 191L65 213L66 213L65 191z"/>
<path style="fill:#afb1b0; stroke:none;" d="M125.333 191.667L125.667 192.333L125.333 191.667z"/>
<path style="fill:#a07868; stroke:none;" d="M244 191L244 194L245 194L244 191z"/>
<path style="fill:#642f1f; stroke:none;" d="M250 192L250 193L252 197L253 197L256 191L250 192z"/>
<path style="fill:#944041; stroke:none;" d="M333 191L333 212L334 212L333 191z"/>
<path style="fill:#6b584b; stroke:none;" d="M140 192L141 195L140 192z"/>
<path style="fill:#a09988; stroke:none;" d="M143 192L143 195L144 195L143 192z"/>
<path style="fill:#ad6d5c; stroke:none;" d="M205 192L207 198L208 198L205 192z"/>
<path style="fill:#e87376; stroke:none;" d="M63 193L63 214L64 214L63 193z"/>
<path style="fill:#bab9be; stroke:none;" d="M260.333 193.667L260.667 194.333L260.333 193.667z"/>
<path style="fill:#f36c66; stroke:none;" d="M7 194L7 202L8 202L7 194z"/>
<path style="fill:#eeafa3; stroke:none;" d="M262.333 194.667L262.667 195.333L262.333 194.667z"/>
<path style="fill:#e2696e; stroke:none;" d="M335 194L335 211L336 211L335 194z"/>
<path style="fill:#ab0100; stroke:none;" d="M8 202L11.7423 211.942L20 219L14 219L14 220C18.6703 219.987 23.2045 220.214 26 216C12.0381 215.083 14.5972 204.68 17 195C12.5144 195.906 9.97263 197.872 8 202z"/>
<path style="fill:#ec9875; stroke:none;" d="M133 195L136 206L142 206C141.914 198.704 139.066 197.932 133 195z"/>
<path style="fill:#b40005; stroke:none;" d="M366 201L369 199C369.003 203.283 368.312 208.193 372 211L374 195C369.601 195.347 367.754 196.991 366 201z"/>
<path style="fill:#fe877a; stroke:none;" d="M24 196L30 206C32.0344 200.95 28.7984 197.363 24 196z"/>
<path style="fill:#552e1d; stroke:none;" d="M136 198L139 196L136 198z"/>
<path style="fill:#753c2d; stroke:none;" d="M180 196L183 202L180 196z"/>
<path style="fill:#844a3a; stroke:none;" d="M208 196L207 199L208 196z"/>
<path style="fill:#59392c; stroke:none;" d="M246 196L246 202L247 202L246 196z"/>
<path style="fill:#fd988c; stroke:none;" d="M382 196L388 205C389.773 200.253 386.356 197.237 382 196z"/>
<path style="fill:#716c61; stroke:none;" d="M144.333 197.667L144.667 198.333L144.333 197.667z"/>
<path style="fill:#a27c6b; stroke:none;" d="M243.333 197.667L243.667 198.333L243.333 197.667z"/>
<path style="fill:#606262; stroke:none;" d="M258 197L259 198L258 197z"/>
<path style="fill:#7b463b; stroke:none;" d="M184 200L189 199L184 200z"/>
<path style="fill:#1d0503; stroke:none;" d="M198 202L204 199C200.863 197.999 199.513 199.244 198 202z"/>
<path style="fill:#5a251d; stroke:none;" d="M204 198L201 200L201 201L208 200L208 199L204 198z"/>
<path style="fill:#fe776e; stroke:none;" d="M393 198L392 219L393 219L393 198z"/>
<path style="fill:#3a1712; stroke:none;" d="M185 199L185 201L193 202L185 199z"/>
<path style="fill:#79706e; stroke:none;" d="M257 199L258 200L257 199z"/>
<path style="fill:#7e0000; stroke:none;" d="M368 199C355.914 210.638 370.829 219 382 219L382 216C370.96 213.781 371.491 207.301 368 199z"/>
<path style="fill:#827c7b; stroke:none;" d="M129 200L130 201L129 200z"/>
<path style="fill:#8e5949; stroke:none;" d="M142 200L142 206L143 206L142 200z"/>
<path style="fill:#595149; stroke:none;" d="M145.333 201.667L145.667 202.333L145.333 201.667z"/>
<path style="fill:#b66d4e; stroke:none;" d="M182 202L182 203L198 201L182 202z"/>
<path style="fill:#ed4a45; stroke:none;" d="M389 201L389 205L387 204L387 209C389.91 206.944 390.326 204.257 389 201z"/>
<path style="fill:#750000; stroke:none;" d="M7 202C7.02716 211.843 8.93546 218.877 20 219C15.759 212.163 10.0858 211.477 10 202L7 202z"/>
<path style="fill:#ee4d46; stroke:none;" d="M31 202L31 206L32 206L31 202z"/>
<path style="fill:#a37d6a; stroke:none;" d="M242.333 202.667L242.667 203.333L242.333 202.667z"/>
<path style="fill:#797875; stroke:none;" d="M255 202L256 203L255 202z"/>
<path style="fill:#737070; stroke:none;" d="M131 203L132 204L131 203z"/>
<path style="fill:#836658; stroke:none;" d="M134 203L135 204L134 203z"/>
<path style="fill:#717067; stroke:none;" d="M146.333 204.667L146.667 205.333L146.333 204.667z"/>
<path style="fill:#656363; stroke:none;" d="M253 204L254 205L253 204z"/>
<path style="fill:#a27464; stroke:none;" d="M137 206L137 207L142 207L137 206z"/>
<path style="fill:#ab8472; stroke:none;" d="M241 206L241 209L242 209L241 206z"/>
<path style="fill:#a9a6a9; stroke:none;" d="M245.333 206.667L245.667 207.333L245.333 206.667z"/>
<path style="fill:#b0b1b4; stroke:none;" d="M247 206L247 207L251 207L247 206z"/>
<path style="fill:#3d3734; stroke:none;" d="M147.333 208.667L147.667 209.333L147.333 208.667z"/>
<path style="fill:#f8827b; stroke:none;" d="M399 208L398 223L399 223L399 208z"/>
<path style="fill:#2d2d2c; stroke:none;" d="M138 209L138 210L145 211L138 209z"/>
<path style="fill:#ab5b41; stroke:none;" d="M198 209L192 211L192 212C195.796 212.918 197.987 212.444 200 209L198 209z"/>
<path style="fill:#8b8d90; stroke:none;" d="M244.333 209.667L244.667 210.333L244.333 209.667z"/>
<path style="fill:#3f3934; stroke:none;" d="M148.333 211.667L148.667 212.333L148.333 211.667z"/>
<path style="fill:#644c3d; stroke:none;" d="M240.333 211.667L240.667 212.333L240.333 211.667z"/>
<path style="fill:#efb9b3; stroke:none;" d="M137 212L137 213L142 213L137 212z"/>
<path style="fill:#808483; stroke:none;" d="M145.333 212.667L145.667 213.333L145.333 212.667z"/>
<path style="fill:#5e6264; stroke:none;" d="M243.333 212.667L243.667 213.333L243.333 212.667z"/>
<path style="fill:#cb504b; stroke:none;" d="M181 218L181 219L209 218C201.661 210.908 189.085 214.248 181 218z"/>
<path style="fill:#715244; stroke:none;" d="M239.333 214.667L239.667 215.333L239.333 214.667z"/>
<path style="fill:#909293; stroke:none;" d="M146.333 215.667L146.667 216.333L146.333 215.667z"/>
<path style="fill:#d76e64; stroke:none;" d="M245 215C244.121 220.013 244.57 222.375 250 223L250 222L245 215z"/>
<path style="fill:#4c463d; stroke:none;" d="M150.333 216.667L150.667 217.333L150.333 216.667z"/>
<path style="fill:#d37c69; stroke:none;" d="M208 216L208 217L213 218L213 217L208 216z"/>
<path style="fill:#721112; stroke:none;" d="M176 218C178.435 220.786 182.484 220 186 220C193.232 220 211.491 222.381 216 216C204.625 219.549 187.705 220.165 176 218z"/>
<path style="fill:#a4a4a5; stroke:none;" d="M242.333 216.667L242.667 217.333L242.333 216.667z"/>
<path style="fill:#bd0509; stroke:none;" d="M367 216C370.395 220.076 373.955 219.996 379 220L379 219L367 216z"/>
<path style="fill:#5b3f33; stroke:none;" d="M238.333 217.667L238.667 218.333L238.333 217.667z"/>
<path style="fill:#dd2f2f; stroke:none;" d="M399 217L399 223L400 223L399 217z"/>
<path style="fill:#b2b3b5; stroke:none;" d="M147.333 218.667L147.667 219.333L147.333 218.667z"/>
<path style="fill:#e24f51; stroke:none;" d="M64 219L64 223L65 223L64 219z"/>
<path style="fill:#efcacb; stroke:none;" d="M145 219L143 222L143 223C145.649 222.432 146.355 221.412 145 219z"/>
<path style="fill:#a24e3c; stroke:none;" d="M203 219L203 220L212 220L203 219z"/>
<path style="fill:#eb665d; stroke:none;" d="M177 220L177 221C187.342 222.503 194.217 230.746 203 220L177 220z"/>
<path style="fill:#b34745; stroke:none;" d="M188 220L188 221L197 221L188 220z"/>
<path style="fill:#a86162; stroke:none;" d="M332 220L332 223L333 223L332 220z"/>
<path style="fill:#7d7c83; stroke:none;" d="M240 221L241 222L240 221z"/>
<path style="fill:#ee5557; stroke:none;" d="M354 221L354 225L355 225L354 221z"/>
<path style="fill:#000000; stroke:none;" d="M0 223L0 400L177 400L177 399C111.292 398.819 46.5501 344.366 19.2585 288C12.4607 273.96 7.47717 259.159 3.88426 244C2.30981 237.357 2.59466 229.17 0 223z"/>
<path style="fill:#4c4c51; stroke:none;" d="M149.333 223.667L149.667 224.333L149.333 223.667z"/>
<path style="fill:#85858d; stroke:none;" d="M239 223L240 224L239 223z"/>
<path style="fill:#e89592; stroke:none;" d="M250 223L250 224L255 224L250 223z"/>
<path style="fill:#e84646; stroke:none;" d="M398 223L398 232L399 232L398 223z"/>
<path style="fill:#000000; stroke:none;" d="M399 223C398.95 241.05 392.63 259.425 386 276C361.167 338.081 293.268 398.806 223 399L223 400L400 400L400 276L400 240L399 223z"/>
<path style="fill:#b0afad; stroke:none;" d="M145 224L145 225L149 225L145 224z"/>
<path style="fill:#474a4b; stroke:none;" d="M239 224L239 225L242 225L239 224z"/>
<path style="fill:#aca7aa; stroke:none;" d="M242 224L242 225L247 225L242 224z"/>
<path style="fill:#f85d59; stroke:none;" d="M391 224L390 232L391 232L391 224z"/>
<path style="fill:#eeaead; stroke:none;" d="M131 225L131 226L134 226L131 225z"/>
<path style="fill:#969695; stroke:none;" d="M139.667 225.333L140.333 225.667L139.667 225.333z"/>
<path style="fill:#515352; stroke:none;" d="M248.667 225.333L249.333 225.667L248.667 225.333z"/>
<path style="fill:#969797; stroke:none;" d="M250 225L250 226L253 226L250 225z"/>
<path style="fill:#585a59; stroke:none;" d="M136.667 226.333L137.333 226.667L136.667 226.333z"/>
<path style="fill:#af6245; stroke:none;" d="M203 226L205 228L205 226L203 226z"/>
<path style="fill:#909190; stroke:none;" d="M255.667 226.333L256.333 226.667L255.667 226.333z"/>
<path style="fill:#f97d75; stroke:none;" d="M397 226L396 235L397 235L397 226z"/>
<path style="fill:#8c898e; stroke:none;" d="M132.667 227.333L133.333 227.667L132.667 227.333z"/>
<path style="fill:#cc7d71; stroke:none;" d="M189 229L200 228C196.612 226.578 191.554 226.077 189 229z"/>
<path style="fill:#6e311e; stroke:none;" d="M200 227L200 228L204 228L200 227z"/>
<path style="fill:#76757a; stroke:none;" d="M258.667 227.333L259.333 227.667L258.667 227.333z"/>
<path style="fill:#47494b; stroke:none;" d="M130.667 228.333L131.333 228.667L130.667 228.333z"/>
<path style="fill:#751e24; stroke:none;" d="M130 232L130 246L131 246C133.688 236.45 143.648 235.556 152 234C151.175 223.407 136.455 229.968 130 232z"/>
<path style="fill:#350f0c; stroke:none;" d="M190 228L190 229L202 229L190 228z"/>
<path style="fill:#731721; stroke:none;" d="M236 235L242 235L242 229L251 229C244.617 226.322 236.863 227.338 236 235z"/>
<path style="fill:#adafb0; stroke:none;" d="M262.667 228.333L263.333 228.667L262.667 228.333z"/>
<path style="fill:#cc0003; stroke:none;" d="M350 228C342.46 239.16 340.766 256.401 335.139 269C324.688 292.398 306.639 312.163 286 327L286 328C295.718 324.777 302.668 315.753 310 309.059C313.402 305.953 317.987 305.687 321.192 302.682C332.513 292.067 341.491 272.586 346.251 258C348.318 251.667 353.754 233.42 350 228z"/>
<path style="fill:#5f3220; stroke:none;" d="M191 229L191 230L199 230L191 229z"/>
<path style="fill:#9d6550; stroke:none;" d="M199.667 229.333L200.333 229.667L199.667 229.333z"/>
<path style="fill:#e13737; stroke:none;" d="M242 229L242 235C247.631 236.062 263.25 238.149 263.263 246.015C263.281 256.245 243.694 267.788 237 274.025C218.947 290.845 207 306.507 207 332C215.946 319.488 217.603 307.091 231 296.899C243.187 287.628 256.604 279.989 269 270.989C273.035 268.06 280.917 263.667 282.758 258.83C284.22 254.992 279.704 249.983 277.782 247C268.962 233.306 257.802 229 242 229z"/>
<path style="fill:#3f0b0d; stroke:none;" d="M253 229L253 230L260 231L253 229z"/>
<path style="fill:#7b2226; stroke:none;" d="M260.667 231.333L261.333 231.667L260.667 231.333z"/>
<path style="fill:#848281; stroke:none;" d="M268 231L269 232L268 231z"/>
<path style="fill:#a66664; stroke:none;" d="M330 231L330 234L331 234L330 231z"/>
<path style="fill:#69605c; stroke:none;" d="M160 232L161 233L160 232z"/>
<path style="fill:#6b6866; stroke:none;" d="M269 232L270 233L269 232z"/>
<path style="fill:#de3937; stroke:none;" d="M193 327C192.766 299.144 169.229 283.568 150 267.565C139.774 259.054 125.634 247.835 131 233C120.717 235.981 120.666 256.392 125.703 264C137.195 281.359 161.634 291.477 176.985 305.286C183.6 311.236 186.277 322.071 193 327z"/>
<path style="fill:#757273; stroke:none;" d="M270 233L271 234L270 233z"/>
<path style="fill:#ff0000; stroke:none;" d="M397 233L397 238L398 238L397 233z"/>
<path style="fill:#696968; stroke:none;" d="M271 234L272 235L271 234z"/>
<path style="fill:#e03337; stroke:none;" d="M43 235L45 247L46 247L43 235z"/>
<path style="fill:#6a6a69; stroke:none;" d="M272 235L273 236L272 235z"/>
<path style="fill:#f04848; stroke:none;" d="M396 235L392 258L393 258L396 235z"/>
<path style="fill:#604435; stroke:none;" d="M229 236L230 254L231 254C231 249.07 232.906 239.413 229 236z"/>
<path style="fill:#7b7478; stroke:none;" d="M273 236L274 237L273 236z"/>
<path style="fill:#726e71; stroke:none;" d="M119 237L120 238L119 237z"/>
<path style="fill:#852324; stroke:none;" d="M124 237L111 258L111 259C122.948 269.972 140.392 284.027 156 289L156 288C145.901 281.186 127.643 271.243 123.804 259C121.496 251.638 125.981 243.696 124 237z"/>
<path style="fill:#fda87d; stroke:none;" d="M208 273L219 249L193 267L194 292L175 266L174 266C174 271.049 173.094 277.103 174.434 282C177.599 293.57 193.646 309.376 206.621 303.397C210.713 301.511 213.427 294.522 216.015 291C220.558 284.819 226.74 279.393 233 275C227.36 265.054 230 248.249 230 237C219.354 242.318 215.899 263.708 208 273z"/>
<path style="fill:#939393; stroke:none;" d="M118 238L119 239L118 238z"/>
<path style="fill:#757470; stroke:none;" d="M161 238L161 243L162 243L161 238z"/>
<path style="fill:#fd6c66; stroke:none;" d="M355 238L347.633 261.83L332 293L329 291C312.661 315.215 292.062 330.983 267.055 345.262C256.947 351.034 246.494 358.722 234 360L234 361C249.626 360.957 260.3 353.147 273.424 346.208C303.468 330.323 331.516 308.012 344.363 275C348.281 264.93 358.43 249.184 355 238z"/>
<path style="fill:#645b53; stroke:none;" d="M168 239L169 240L168 239z"/>
<path style="fill:#7d2424; stroke:none;" d="M257.667 239.333L258.333 239.667L257.667 239.333z"/>
<path style="fill:#f86765; stroke:none;" d="M388 239L388 244L389 244L388 239z"/>
<path style="fill:#a5725c; stroke:none;" d="M224.333 241.667L224.667 242.333L224.333 241.667z"/>
<path style="fill:#8a8788; stroke:none;" d="M277 241L278 242L277 241z"/>
<path style="fill:#aa0000; stroke:none;" d="M396.333 241.667L396.667 242.333L396.333 241.667z"/>
<path style="fill:#e7c6ad; stroke:none;" d="M162 242L162 275L164 275C164 265.6 166.927 250.225 162 242z"/>
<path style="fill:#694d41; stroke:none;" d="M223 242L222 247L223 247L223 242z"/>
<path style="fill:#433e36; stroke:none;" d="M161 243L161 248L162 248L161 243z"/>
<path style="fill:#89746c; stroke:none;" d="M163.333 243.667L163.667 244.333L163.333 243.667z"/>
<path style="fill:#681a1c; stroke:none;" d="M263 243L263 248L264 248L263 243z"/>
<path style="fill:#b0676c; stroke:none;" d="M327.333 243.667L327.667 244.333L327.333 243.667z"/>
<path style="fill:#c09695; stroke:none;" d="M118 244L111 258L112 258L120 244L118 244z"/>
<path style="fill:#d58a64; stroke:none;" d="M180 264C182.404 272.346 187.878 285.899 194 292L193 267C200.519 266.406 207.866 260.134 213 255C215.1 252.9 217.196 249.037 220 251L222 245C206.774 252.091 198.109 262.521 180 264z"/>
<path style="fill:#d1875e; stroke:none;" d="M164 246C164 260.058 159.819 276.962 175 284L174 266L175 266L179 271L164 246z"/>
<path style="fill:#a7635f; stroke:none;" d="M326.333 246.667L326.667 247.333L326.333 246.667z"/>
<path style="fill:#ff0000; stroke:none;" d="M395.333 246.667L395.667 247.333L395.333 246.667z"/>
<path style="fill:#693123; stroke:none;" d="M221 247L210 270C214.667 265.999 222.717 253.263 221 247z"/>
<path style="fill:#b16a6b; stroke:none;" d="M325.333 249.667L325.667 250.333L325.333 249.667z"/>
<path style="fill:#db0000; stroke:none;" d="M394.333 249.667L394.667 250.333L394.333 249.667z"/>
<path style="fill:#918a8e; stroke:none;" d="M283 250L284 251L283 250z"/>
<path style="fill:#ac0003; stroke:none;" d="M6 251C8.64105 281.289 31.2939 312.854 50.4252 335C57.7965 343.533 67.4589 354.537 78 359L53.4282 334.715L29.885 303L6 251z"/>
<path style="fill:#b1a995; stroke:none;" d="M162 251L162 259L163 259L162 251z"/>
<path style="fill:#b6856d; stroke:none;" d="M192 252L192 253L202 253L192 252z"/>
<path style="fill:#5d362c; stroke:none;" d="M202 252L202 253L205 253L202 252z"/>
<path style="fill:#bf757b; stroke:none;" d="M324.333 252.667L324.667 253.333L324.333 252.667z"/>
<path style="fill:#b99179; stroke:none;" d="M230 254L230 259L231 259L230 254z"/>
<path style="fill:#6a6d6e; stroke:none;" d="M285 254L286 255L285 254z"/>
<path style="fill:#fb766f; stroke:none;" d="M391 255L390 259L391 259L391 255z"/>
<path style="fill:#757073; stroke:none;" d="M288 256L289 257L288 256z"/>
<path style="fill:#959395; stroke:none;" d="M104 257L105 258L104 257z"/>
<path style="fill:#9d9d9f; stroke:none;" d="M103 258L104 259L103 258z"/>
<path style="fill:#ee3737; stroke:none;" d="M391 258L379 291L380 291C383.385 282.858 394.104 266.749 391 258z"/>
<path style="fill:#8e857a; stroke:none;" d="M162 259L162 267L163 267L162 259z"/>
<path style="fill:#764e40; stroke:none;" d="M199.667 259.333L200.333 259.667L199.667 259.333z"/>
<path style="fill:#a09d9d; stroke:none;" d="M292 259L293 260L292 259z"/>
<path style="fill:#9a989c; stroke:none;" d="M101 260L102 261L101 260z"/>
<path style="fill:#891b27; stroke:none;" d="M106 260L97 271L97 272L105 277L108 265L119 270L119 269L106 260z"/>
<path style="fill:#d9706a; stroke:none;" d="M286 260L298 271L286 260z"/>
<path style="fill:#969395; stroke:none;" d="M293 260L294 261L293 260z"/>
<path style="fill:#969599; stroke:none;" d="M100 261L101 262L100 261z"/>
<path style="fill:#55342a; stroke:none;" d="M192 261L192 262L195 262L192 261z"/>
<path style="fill:#e23639; stroke:none;" d="M238 300C253.445 297.341 270.35 288.189 284 280.688C286.994 279.043 296.939 274.541 295.654 270.13C294.594 266.49 287.815 261.103 284 262.466C278.968 264.265 274.278 270.159 270 273.373C258.99 281.648 245.849 288.367 238 300z"/>
<path style="fill:#8d8c90; stroke:none;" d="M294 261L295 262L294 261z"/>
<path style="fill:#9b979b; stroke:none;" d="M99 262L100 263L99 262z"/>
<path style="fill:#c37688; stroke:none;" d="M105 262L97 271C100.5 268.975 105.093 266.396 105 262z"/>
<path style="fill:#3f231c; stroke:none;" d="M184 262L184 263L189 263L184 262z"/>
<path style="fill:#796258; stroke:none;" d="M231 262L231 265L232 265L231 262z"/>
<path style="fill:#77797d; stroke:none;" d="M295 262L296 263L295 262z"/>
<path style="fill:#8a8a8e; stroke:none;" d="M98 263L99 264L98 263z"/>
<path style="fill:#774f40; stroke:none;" d="M180 263L180 264L185 264L180 263z"/>
<path style="fill:#f4d5c3; stroke:none;" d="M230 263L231 274L233 274L230 263z"/>
<path style="fill:#6a6d71; stroke:none;" d="M296 263L297 264L296 263z"/>
<path style="fill:#76747a; stroke:none;" d="M97 264L98 265L97 264z"/>
<path style="fill:#dd393a; stroke:none;" d="M108 265C107.201 268.453 104.098 274.107 106.068 277.471C108.342 281.354 115.133 283.227 119 285C130.576 290.309 149.406 299.697 162 300C158.967 294.456 152.181 291.645 147 288.308C135.301 280.772 121.662 268.209 108 265z"/>
<path style="fill:#939293; stroke:none;" d="M94 266L95 267L94 266z"/>
<path style="fill:#77787b; stroke:none;" d="M300 266L301 267L300 266z"/>
<path style="fill:#90898a; stroke:none;" d="M93 267L94 268L93 267z"/>
<path style="fill:#62524b; stroke:none;" d="M232.333 267.667L232.667 268.333L232.333 267.667z"/>
<path style="fill:#ee9897; stroke:none;" d="M89 268L89 271L90 271L89 268z"/>
<path style="fill:#79797a; stroke:none;" d="M302 268L302 271L303 271L302 268z"/>
<path style="fill:#e59e93; stroke:none;" d="M305.333 268.667L305.667 269.333L305.333 268.667z"/>
<path style="fill:#5e6262; stroke:none;" d="M92.3333 269.667L92.6667 270.333L92.3333 269.667z"/>
<path style="fill:#7b4347; stroke:none;" d="M298.333 269.667L298.667 270.333L298.333 269.667z"/>
<path style="fill:#c67651; stroke:none;" d="M208 273L211 270L208 273z"/>
<path style="fill:#706f70; stroke:none;" d="M161 271L161 274L162 274L161 271z"/>
<path style="fill:#a26d57; stroke:none;" d="M179 271L181 276L182 276L179 271z"/>
<path style="fill:#6a5b53; stroke:none;" d="M233 271L233 274L234 274L233 271z"/>
<path style="fill:#767274; stroke:none;" d="M305 273L306 274L305 273z"/>
<path style="fill:#ad2a29; stroke:none;" d="M316 273L315 276L316 273z"/>
<path style="fill:#af7b7a; stroke:none;" d="M312.667 274.333L313.333 274.667L312.667 274.333z"/>
<path style="fill:#f9eaf4; stroke:none;" d="M84.6667 275.333L85.3333 275.667L84.6667 275.333z"/>
<path style="fill:#600101; stroke:none;" d="M81 279L82 279L84 277C81.8603 275.882 81.4732 276.749 81 279z"/>
<path style="fill:#98969c; stroke:none;" d="M84.6667 276.333L85.3333 276.667L84.6667 276.333z"/>
<path style="fill:#a1262c; stroke:none;" d="M277 288L277 289C284.01 290.077 290.045 296.401 294 302C300.866 297.061 318.498 276.957 299 276.499C292.602 276.349 282.547 284.762 277 288z"/>
<path style="fill:#540000; stroke:none;" d="M315 276L315 277L317 279L318 279L315 276z"/>
<path style="fill:#93242a; stroke:none;" d="M88 281L103 300L115 289C107.106 282.39 97.5667 274.783 88 281z"/>
<path style="fill:#a1969c; stroke:none;" d="M312.667 277.333L313.333 277.667L312.667 277.333z"/>
<path style="fill:#cc1c23; stroke:none;" d="M317 279L292 308.91L274 324C287.863 318.745 300.83 304.786 309.29 293C312.059 289.143 317.679 283.951 317 279z"/>
<path style="fill:#681d1d; stroke:none;" d="M117.667 284.333L118.333 284.667L117.667 284.333z"/>
<path style="fill:#733626; stroke:none;" d="M188 284L192 289L188 284z"/>
<path style="fill:#f55753; stroke:none;" d="M378 288L361 320L362 320C366.766 312.934 381.425 296.886 378 288z"/>
<path style="fill:#e03636; stroke:none;" d="M184 339C182.767 312.403 155.034 305.237 135 297.2C124.366 292.934 114.501 284.753 105.323 295.576C99.54 302.395 115.231 311.757 120 315.265C138.339 328.754 160.921 338.997 184 339z"/>
<path style="fill:#b23b3b; stroke:none;" d="M129 289L129 290L154 299C148.572 293.75 136.492 289.658 129 289z"/>
<path style="fill:#742223; stroke:none;" d="M274.667 289.333L275.333 289.667L274.667 289.333z"/>
<path style="fill:#e33738; stroke:none;" d="M222 339C242.611 336.393 262.165 327.678 279 315.572C283.161 312.58 295.829 305.27 292.338 299.015C284.183 284.404 272.443 291.204 261 295.845C253.536 298.872 243.704 300.99 237.174 305.727C227.645 312.638 222.883 327.829 222 339z"/>
<path style="fill:#792728; stroke:none;" d="M272.667 290.333L273.333 290.667L272.667 290.333z"/>
<path style="fill:#541113; stroke:none;" d="M123 292L123 293L147 301C141.219 296.379 130.395 292.219 123 292z"/>
<path style="fill:#7a1e28; stroke:none;" d="M226 306L240 301L238 299L245 293C238.599 291.954 229.008 300.801 226 306z"/>
<path style="fill:#c72226; stroke:none;" d="M91 293L95 298L91 293z"/>
<path style="fill:#71191c; stroke:none;" d="M261.667 295.333L262.333 295.667L261.667 295.333z"/>
<path style="fill:#7c2627; stroke:none;" d="M248.667 296.333L249.333 296.667L248.667 296.333z"/>
<path style="fill:#762627; stroke:none;" d="M243.667 298.333L244.333 298.667L243.667 298.333z"/>
<path style="fill:#6f1f22; stroke:none;" d="M154.667 299.333L155.333 299.667L154.667 299.333z"/>
<path style="fill:#b13e40; stroke:none;" d="M159 301L169 304C166.082 300.772 163.127 298.714 159 301z"/>
<path style="fill:#5d3429; stroke:none;" d="M209.333 300.667L209.667 301.333L209.333 300.667z"/>
<path style="fill:#812126; stroke:none;" d="M147 301L147 302L151 303L151 302L147 301z"/>
<path style="fill:#8d2b2e; stroke:none;" d="M152 303L152 304L156 305L156 304L152 303z"/>
<path style="fill:#5b292e; stroke:none;" d="M167 304L167 305L175 308C172.989 304.735 170.791 303.829 167 304z"/>
<path style="fill:#985f4c; stroke:none;" d="M193 304L193 305L205 305L193 304z"/>
<path style="fill:#f8635d; stroke:none;" d="M362 304L361 307L362 304z"/>
<path style="fill:#400c0c; stroke:none;" d="M157 305L157 306L163 307L157 305z"/>
<path style="fill:#6b1d1f; stroke:none;" d="M211.333 305.667L211.667 306.333L211.333 305.667z"/>
<path style="fill:#b40000; stroke:none;" d="M252 345L252 346C259.03 345.295 264.494 341.294 271.015 339.054C290.712 332.286 306.52 322.787 319 305C308.895 305.328 302.426 316.087 295 321.996C283.051 331.504 266.46 339.998 252 345z"/>
<path style="fill:#b94244; stroke:none;" d="M188 306L195 340L196 340C195.776 329.166 194.739 314.914 188 306z"/>
<path style="fill:#450108; stroke:none;" d="M192 308L203 307C199.245 316.584 195.46 320.626 199 331C204.059 325.214 205.036 314.467 206 307C201.83 306.007 195.095 304.458 192 308z"/>
<path style="fill:#9b272c; stroke:none;" d="M210 341L223 340C220.904 326.824 230.591 316.874 236 306C218.676 310.738 210.149 323.188 210 341z"/>
<path style="fill:#7c2222; stroke:none;" d="M162 307L162 308C172.517 314.578 182.843 326.142 184 339L177 339L177 340L191 341C190.632 323.149 179.777 310.169 162 307z"/>
<path style="fill:#bb1023; stroke:none;" d="M193 307C194.867 312.911 201.192 312.956 203 307L193 307z"/>
<path style="fill:#6c030e; stroke:none;" d="M194 311L196 319L200 312L194 311z"/>
<path style="fill:#d44840; stroke:none;" d="M83 315L83 316C104.339 332.259 127.289 356.655 156 359C150.96 354.596 143.001 353.312 137 350.321C125.351 344.515 114.204 338.446 104 330.195C97.6445 325.056 91.5848 315.648 83 315z"/>
<path style="fill:#6e2327; stroke:none;" d="M213.333 316.667L213.667 317.333L213.333 316.667z"/>
<path style="fill:#fe7368; stroke:none;" d="M360 318L321.286 357.458L296 376C315.379 370.3 335.509 350.895 348.424 336C352.255 331.582 361.483 324.449 360 318z"/>
<path style="fill:#9c373b; stroke:none;" d="M206 322L206 340L207 340L206 322z"/>
<path style="fill:#ff0000; stroke:none;" d="M359 322L360 323L359 322z"/>
<path style="fill:#451315; stroke:none;" d="M205 326L207 341L205 326z"/>
<path style="fill:#750f12; stroke:none;" d="M134 328L137 330L134 328z"/>
<path style="fill:#5f1c23; stroke:none;" d="M195 329L195 334L196 334L195 329z"/>
<path style="fill:#5c1b1c; stroke:none;" d="M208 329L208 333L209 333L208 329z"/>
<path style="fill:#7a1416; stroke:none;" d="M137.667 330.333L138.333 330.667L137.667 330.333z"/>
<path style="fill:#b62627; stroke:none;" d="M139 331L139 332L145 334L145 333L139 331z"/>
<path style="fill:#720d0e; stroke:none;" d="M256.667 332.333L257.333 332.667L256.667 332.333z"/>
<path style="fill:#cf191e; stroke:none;" d="M219 344L219 345L258 334L243 337.855L219 344z"/>
<path style="fill:#d42020; stroke:none;" d="M146 334C150.892 339.563 160.773 341.846 168 342L168 341L146 334z"/>
<path style="fill:#ff0000; stroke:none;" d="M349 334L350 335L349 334z"/>
<path style="fill:#e02529; stroke:none;" d="M64 335L73 343L64 335z"/>
<path style="fill:#910000; stroke:none;" d="M192 355L193 360L183 360L183 361C209.507 361 234.084 359.491 259 349.396C267.283 346.04 278.217 341.979 284 335C274.167 336.464 265.452 342.194 256 345.096C235.249 351.467 213.693 355 192 355z"/>
<path style="fill:#ff0000; stroke:none;" d="M348 335L349 336L348 335z"/>
<path style="fill:#fb453e; stroke:none;" d="M265 350L265 351C274.267 350.051 286.164 343.163 292 336L265 350z"/>
<path style="fill:#552332; stroke:none;" d="M194 338L196 341L194 338z"/>
<path style="fill:#410101; stroke:none;" d="M184 344L184 345L212 345L184 344z"/>
<path style="fill:#9e1617; stroke:none;" d="M212 344L212 345L219 345L212 344z"/>
<path style="fill:#b01b1b; stroke:none;" d="M191 345L191 346L212 346L191 345z"/>
<path style="fill:#ff0000; stroke:none;" d="M335 348L336 349L335 348M327 355L328 356L327 355z"/>
<path style="fill:#e83935; stroke:none;" d="M156 359L156 360L172 363L156 359z"/>
<path style="fill:#e24c48; stroke:none;" d="M172 363L172 364C191.582 366.529 215.076 369.054 234 362L209 363.83L172 363z"/>
<path style="fill:#da0506; stroke:none;" d="M188 378L191 376C191.074 384.264 201.405 401.369 209 389C195.793 389 192.999 384.682 194 372L188 378z"/>
<path style="fill:#fea295; stroke:none;" d="M205 372L210 381C211.845 376.42 209.463 373.295 205 372z"/>
<path style="fill:#ff0000; stroke:none;" d="M303 372L304 373L303 372z"/>
<path style="fill:#850000; stroke:none;" d="M190 376C181.969 385.092 191.314 393.967 201 394L190 376z"/>
<path style="fill:#ff0000; stroke:none;" d="M296 376L297 377L296 376z"/>
<path style="fill:#f55857; stroke:none;" d="M211 377L210 383L211 383L211 377z"/>
<path style="fill:#fe726b; stroke:none;" d="M112 378L112 379C120.602 383.895 132.079 389.134 142 390L112 378z"/>
<path style="fill:#ff7a6e; stroke:none;" d="M210 399L210 400C237.845 400 261.149 390.8 287 382C279.048 379.586 266.429 387.613 259 390.402C243.783 396.115 226.017 396.974 210 399z"/>
<path style="fill:#ff0000; stroke:none;" d="M282 383L283 384L282 383M275 386L276 387L275 386z"/>
<path style="fill:#ec4b46; stroke:none;" d="M167 391L167 392L171 392L167 391z"/>
<path style="fill:#ff0000; stroke:none;" d="M261 391L262 392L261 391z"/>
<path style="fill:#fa5a56; stroke:none;" d="M147 392L147 393L154 394L147 392z"/>
<path style="fill:#ad211f; stroke:none;" d="M191 392C191.946 396.413 197.233 395 201 395L201 394L191 392z"/>
<path style="fill:#f04643; stroke:none;" d="M154 394L154 395L162 397L154 394z"/>
<path style="fill:#f16962; stroke:none;" d="M183 394L183 395L191 395L183 394z"/>
<path style="fill:#e84343; stroke:none;" d="M201 394L201 395L211 395L201 394z"/>
<path style="fill:#fa5b56; stroke:none;" d="M162 397L162 398L183 400L162 397z"/>
</svg>
